<svg class="main-svg" xmlns="http://www.w3.org/2000/svg" xmlns:xlink="http://www.w3.org/1999/xlink" width="1500" height="600" style="" viewBox="0 0 1500 600"><rect x="0" y="0" width="1500" height="600" style="fill: rgb(255, 255, 255); fill-opacity: 1;"/><defs id="defs-6a69a7"><g class="clips"><clipPath id="clip6a69a7xyplot" class="plotclip"><rect width="1178" height="197"/></clipPath><clipPath class="axesclip" id="clip6a69a7x"><rect x="69" y="0" width="1178" height="600"/></clipPath><clipPath class="axesclip" id="clip6a69a7y"><rect x="0" y="80" width="1500" height="197"/></clipPath><clipPath class="axesclip" id="clip6a69a7xy"><rect x="69" y="80" width="1178" height="197"/></clipPath></g><g class="gradients"><linearGradient x1="0" y1="1" x2="0" y2="0" gradientUnits="objectBoundingBox" id="g6a69a7-cbcoloraxis"><stop offset="0%" stop-color="rgb(247, 154, 150)" stop-opacity="1"/><stop offset="25%" stop-color="rgb(235, 104, 100)" stop-opacity="1"/><stop offset="50%" stop-color="rgb(198, 82, 79)" stop-opacity="1"/><stop offset="75%" stop-color="rgb(166, 59, 57)" stop-opacity="1"/><stop offset="100%" stop-color="rgb(124, 42, 41)" stop-opacity="1"/></linearGradient></g><g class="patterns"/></defs><g class="bglayer"/><g class="layer-below"><g class="imagelayer"/><g class="shapelayer"/></g><g class="cartesianlayer"><g class="subplot xy"><g class="layer-subplot"><g class="shapelayer"/><g class="imagelayer"/></g><g class="minor-gridlayer"><g class="x"/><g class="y"/></g><g class="gridlayer"><g class="x"/><g class="y"><path class="ygrid crisp" transform="translate(0,239.12)" d="M69,0h1178" style="stroke: rgb(211, 211, 211); stroke-opacity: 1; stroke-width: 1px;"/><path class="ygrid crisp" transform="translate(0,201.23000000000002)" d="M69,0h1178" style="stroke: rgb(211, 211, 211); stroke-opacity: 1; stroke-width: 1px;"/><path class="ygrid crisp" transform="translate(0,163.35)" d="M69,0h1178" style="stroke: rgb(211, 211, 211); stroke-opacity: 1; stroke-width: 1px;"/><path class="ygrid crisp" transform="translate(0,125.46000000000001)" d="M69,0h1178" style="stroke: rgb(211, 211, 211); stroke-opacity: 1; stroke-width: 1px;"/><path class="ygrid crisp" transform="translate(0,87.58)" d="M69,0h1178" style="stroke: rgb(211, 211, 211); stroke-opacity: 1; stroke-width: 1px;"/></g></g><g class="zerolinelayer"/><g class="layer-between"><g class="shapelayer"/><g class="imagelayer"/></g><path class="xlines-below"/><path class="ylines-below"/><g class="overlines-below"/><g class="xaxislayer-below"/><g class="yaxislayer-below"/><g class="overaxes-below"/><g class="overplot"><g class="xy" transform="translate(69,80)" clip-path="url(#clip6a69a7xyplot)"><g class="scatterlayer mlayer"><g class="trace scatter trace593d2f" style="stroke-miterlimit: 2; opacity: 1;"><g class="fills"/><g class="errorbars"/><g class="lines"/><g class="points"><path class="point" transform="translate(90.52,128.43)" d="M28.28,0A28.28,28.28 0 1,1 0,-28.28A28.28,28.28 0 0,1 28.28,0Z" style="opacity: 0.7; stroke-width: 1px; fill: rgb(124, 42, 41); fill-opacity: 1; stroke: rgb(255, 255, 255); stroke-opacity: 1;"/><path class="point" transform="translate(295.64,81.98)" d="M27.33,0A27.33,27.33 0 1,1 0,-27.33A27.33,27.33 0 0,1 27.33,0Z" style="opacity: 0.7; stroke-width: 1px; fill: rgb(135, 47, 45); fill-opacity: 1; stroke: rgb(255, 255, 255); stroke-opacity: 1;"/><path class="point" transform="translate(500.75,33.94)" d="M14.14,0A14.14,14.14 0 1,1 0,-14.14A14.14,14.14 0 0,1 14.14,0Z" style="opacity: 0.7; stroke-width: 1px; fill: rgb(235, 105, 101); fill-opacity: 1; stroke: rgb(255, 255, 255); stroke-opacity: 1;"/><path class="point" transform="translate(705.87,130.85)" d="M9.94,0A9.94,9.94 0 1,1 0,-9.94A9.94,9.94 0 0,1 9.94,0Z" style="opacity: 0.7; stroke-width: 1px; fill: rgb(241, 130, 126); fill-opacity: 1; stroke: rgb(255, 255, 255); stroke-opacity: 1;"/><path class="point" transform="translate(910.98,137.23)" d="M2.38,0A2.38,2.38 0 1,1 0,-2.38A2.38,2.38 0 0,1 2.38,0Z" style="opacity: 0.7; stroke-width: 1px; fill: rgb(247, 154, 150); fill-opacity: 1; stroke: rgb(255, 255, 255); stroke-opacity: 1;"/><path class="point" transform="translate(1116.1,129.57)" d="M1.98,0A1.98,1.98 0 1,1 0,-1.98A1.98,1.98 0 0,1 1.98,0Z" style="opacity: 0.7; stroke-width: 1px; fill: rgb(247, 154, 150); fill-opacity: 1; stroke: rgb(255, 255, 255); stroke-opacity: 1;"/></g><g class="text"/></g></g></g></g><g class="zerolinelayer-above"/><path class="xlines-above crisp" d="M68,277.5H1248M68,79.5H1248" style="fill: none; stroke-width: 1px; stroke: rgb(0, 0, 0); stroke-opacity: 1;"/><path class="ylines-above crisp" d="M68.5,80V277M1247.5,80V277" style="fill: none; stroke-width: 1px; stroke: rgb(0, 0, 0); stroke-opacity: 1;"/><g class="overlines-above"/><g class="xaxislayer-above"><path class="xtick ticks crisp" d="M0,278v5" transform="translate(159.51999999999998,0)" style="stroke: rgb(68, 68, 68); stroke-opacity: 1; stroke-width: 1px;"/><path class="xtick ticks crisp" d="M0,278v5" transform="translate(364.64,0)" style="stroke: rgb(68, 68, 68); stroke-opacity: 1; stroke-width: 1px;"/><path class="xtick ticks crisp" d="M0,278v5" transform="translate(569.75,0)" style="stroke: rgb(68, 68, 68); stroke-opacity: 1; stroke-width: 1px;"/><path class="xtick ticks crisp" d="M0,278v5" transform="translate(774.87,0)" style="stroke: rgb(68, 68, 68); stroke-opacity: 1; stroke-width: 1px;"/><path class="xtick ticks crisp" d="M0,278v5" transform="translate(979.98,0)" style="stroke: rgb(68, 68, 68); stroke-opacity: 1; stroke-width: 1px;"/><path class="xtick ticks crisp" d="M0,278v5" transform="translate(1185.1,0)" style="stroke: rgb(68, 68, 68); stroke-opacity: 1; stroke-width: 1px;"/><g class="xtick"><text text-anchor="start" x="0" y="296.2" transform="translate(159.51999999999998,0) rotate(45,0,290.7)" style="font-family: Arial; font-size: 11px; fill: rgb(51, 51, 51); fill-opacity: 1; white-space: pre;">Data / Data Mining Analyst</text></g><g class="xtick"><text text-anchor="start" x="0" y="296.2" transform="translate(364.64,0) rotate(45,0,290.7)" style="font-family: Arial; font-size: 11px; fill: rgb(51, 51, 51); fill-opacity: 1; white-space: pre;">Business Intelligence Analyst</text></g><g class="xtick"><text text-anchor="start" x="0" y="296.2" transform="translate(569.75,0) rotate(45,0,290.7)" style="font-family: Arial; font-size: 11px; fill: rgb(51, 51, 51); fill-opacity: 1; white-space: pre;">Computer Systems Engineer / Architect</text></g><g class="xtick"><text text-anchor="start" x="0" y="296.2" transform="translate(774.87,0) rotate(45,0,290.7)" style="font-family: Arial; font-size: 11px; fill: rgb(51, 51, 51); fill-opacity: 1; white-space: pre;">Business / Management Analyst</text></g><g class="xtick"><text text-anchor="start" x="0" y="296.2" transform="translate(979.98,0) rotate(45,0,290.7)" style="font-family: Arial; font-size: 11px; fill: rgb(51, 51, 51); fill-opacity: 1; white-space: pre;">Clinical Analyst / Clinical Documentation and Improvement Specialist</text></g><g class="xtick"><text text-anchor="start" x="0" y="296.2" transform="translate(1185.1,0) rotate(45,0,290.7)" style="font-family: Arial; font-size: 11px; fill: rgb(51, 51, 51); fill-opacity: 1; white-space: pre;">Market Research Analyst</text></g></g><g class="yaxislayer-above"><path class="ytick ticks crisp" d="M68,0h-5" transform="translate(0,277)" style="stroke: rgb(68, 68, 68); stroke-opacity: 1; stroke-width: 1px;"/><path class="ytick ticks crisp" d="M68,0h-5" transform="translate(0,239.12)" style="stroke: rgb(68, 68, 68); stroke-opacity: 1; stroke-width: 1px;"/><path class="ytick ticks crisp" d="M68,0h-5" transform="translate(0,201.23000000000002)" style="stroke: rgb(68, 68, 68); stroke-opacity: 1; stroke-width: 1px;"/><path class="ytick ticks crisp" d="M68,0h-5" transform="translate(0,163.35)" style="stroke: rgb(68, 68, 68); stroke-opacity: 1; stroke-width: 1px;"/><path class="ytick ticks crisp" d="M68,0h-5" transform="translate(0,125.46000000000001)" style="stroke: rgb(68, 68, 68); stroke-opacity: 1; stroke-width: 1px;"/><path class="ytick ticks crisp" d="M68,0h-5" transform="translate(0,87.58)" style="stroke: rgb(68, 68, 68); stroke-opacity: 1; stroke-width: 1px;"/><g class="ytick"><text text-anchor="end" x="60.2" y="4.8999999999999995" transform="translate(0,277)" style="font-family: Arial; font-size: 14px; fill: rgb(51, 51, 51); fill-opacity: 1; white-space: pre;">50</text></g><g class="ytick"><text text-anchor="end" x="60.2" y="4.8999999999999995" style="font-family: Arial; font-size: 14px; fill: rgb(51, 51, 51); fill-opacity: 1; white-space: pre;" transform="translate(0,239.12)">75</text></g><g class="ytick"><text text-anchor="end" x="60.2" y="4.8999999999999995" style="font-family: Arial; font-size: 14px; fill: rgb(51, 51, 51); fill-opacity: 1; white-space: pre;" transform="translate(0,201.23000000000002)">100</text></g><g class="ytick"><text text-anchor="end" x="60.2" y="4.8999999999999995" style="font-family: Arial; font-size: 14px; fill: rgb(51, 51, 51); fill-opacity: 1; white-space: pre;" transform="translate(0,163.35)">125</text></g><g class="ytick"><text text-anchor="end" x="60.2" y="4.8999999999999995" style="font-family: Arial; font-size: 14px; fill: rgb(51, 51, 51); fill-opacity: 1; white-space: pre;" transform="translate(0,125.46000000000001)">150</text></g><g class="ytick"><text text-anchor="end" x="60.2" y="4.8999999999999995" style="font-family: Arial; font-size: 14px; fill: rgb(51, 51, 51); fill-opacity: 1; white-space: pre;" transform="translate(0,87.58)">175</text></g></g><g class="overaxes-above"/></g></g><g class="polarlayer"/><g class="smithlayer"/><g class="ternarylayer"/><g class="geolayer"/><g class="funnelarealayer"/><g class="pielayer"/><g class="iciclelayer"/><g class="treemaplayer"/><g class="sunburstlayer"/><g class="glimages"/><defs id="topdefs-6a69a7"><g class="clips"/></defs><g class="layer-above"><g class="imagelayer"/><g class="shapelayer"/></g><g class="infolayer"><g class="cbcoloraxis colorbar" transform="translate(69,80)"><rect class="cbbg" x="1202" y="0" width="217.5107421875" height="197" style="fill: rgb(0, 0, 0); fill-opacity: 0; stroke: rgb(68, 68, 68); stroke-opacity: 1; stroke-width: 0;"/><g class="cbfills" transform="translate(0,35)"><rect class="cbfill gradient_filled" style="fill: url('#g6a69a7-cbcoloraxis');" x="1212" y="0" width="30" height="152"/></g><g class="cblines" transform="translate(0,35)"/><g class="cbaxis crisp" transform="translate(0,-80)"><g class="ycbcoloraxistick"><text text-anchor="start" x="1245.3" y="4.8999999999999995" transform="translate(0,210.26)" style="font-family: Arial; font-size: 14px; fill: rgb(51, 51, 51); fill-opacity: 1; white-space: pre;">5k</text></g><g class="ycbcoloraxistick"><text text-anchor="start" x="1245.3" y="4.8999999999999995" style="font-family: Arial; font-size: 14px; fill: rgb(51, 51, 51); fill-opacity: 1; white-space: pre;" transform="translate(0,152.77)">10k</text></g></g><g class="cbtitleunshift" transform="translate(-69,-80)"><g class="cbtitle" transform=""><text class="ycbcoloraxistitle" x="1280.56" y="105.75" text-anchor="start" style="opacity: 1; font-family: Arial; font-size: 17px; fill: rgb(51, 51, 51); fill-opacity: 1; white-space: pre;">Number of Job Postings</text></g></g><rect class="cboutline" x="1212" y="35" width="30" height="152" style="stroke: rgb(68, 68, 68); stroke-opacity: 1; fill: none; stroke-width: 0;"/></g><g class="g-gtitle"><text class="gtitle" x="750" y="40" text-anchor="middle" dy="0em" style="opacity: 1; font-family: Arial; font-size: 18px; fill: rgb(51, 51, 51); fill-opacity: 1; white-space: pre;">Salary Analysis by LOT Occupation Type (Bubble Chart)</text></g><g class="g-xtitle"><text class="xtitle" x="658" y="587.710546875" text-anchor="middle" style="opacity: 1; font-family: Arial; font-size: 17px; fill: rgb(51, 51, 51); fill-opacity: 1; white-space: pre;">Occupation Type</text></g><g class="g-ytitle"><text class="ytitle" transform="rotate(-90,18.015820312499997,178.5)" x="18.015820312499997" y="178.5" text-anchor="middle" style="opacity: 1; font-family: Arial; font-size: 17px; fill: rgb(51, 51, 51); fill-opacity: 1; white-space: pre;">Median Salary (in $1000)</text></g></g></svg>